<?xml version="1.0" encoding="UTF-8"?>
<!DOCTYPE svg PUBLIC "-//W3C//DTD SVG 1.1//EN" "http://www.w3.org/Graphics/SVG/1.1/DTD/svg11.dtd">
<!-- Creator: CorelDRAW 2021 (64-Bit) -->
<svg xmlns="http://www.w3.org/2000/svg" xml:space="preserve" width="29.3298mm" height="9.7177mm" version="1.1" style="shape-rendering:geometricPrecision; text-rendering:geometricPrecision; image-rendering:optimizeQuality; fill-rule:evenodd; clip-rule:evenodd"
viewBox="0 0 3196.74 1059.16"
 xmlns:xlink="http://www.w3.org/1999/xlink"
 xmlns:xodm="http://www.corel.com/coreldraw/odm/2003">
 <defs>
  <style type="text/css">
   <![CDATA[
    .fil0 {fill:#060606;fill-rule:nonzero}
   ]]>
  </style>
 </defs>
 <g id="Layer_x0020_1">
  <metadata id="CorelCorpID_0Corel-Layer"/>
  <path class="fil0" d="M1747.72 518.01c56.24,-46.55 119.5,-69.82 189.62,-69.82 25.32,0 49.66,2.82 73.03,8.47l207.13 425.44c-14.88,29.74 -35.22,57.76 -61,84.06 -60.81,62.01 -130.92,93 -210.8,93 -85.15,0 -159.32,-30.52 -222.03,-91.8 -49.34,-48.22 -79.19,-103.09 -89.68,-164.6 -5.26,-22.16 -7.88,-48.32 -7.88,-78.59 0,-69.64 0,-139.29 0,-208.96 0,-31.48 -10.01,-57.22 -30.28,-77.97 -20.03,-20.51 -45.55,-30.77 -76.56,-30.77 -40.31,0 -74.89,17.18 -104.22,51.52 -29.09,34.32 -43.63,75.83 -43.63,124.47 0,62.47 0,124.95 0,187.41l-0.01 0.26 0 3.36 -0.33 0c-2.49,20.9 -20.97,123.76 -121.3,123.76l0 -123.76 0 -6.74 0 -10.95 0 -11.06 0 -11.16 0 -11.25 0 -11.34 0 -11.41 0 -11.49 0 -11.56 0 -11.62 0 -5.89c-59.38,86.8 -132.83,130.21 -220.59,130.21 -55.73,0 -105.58,-16.02 -149.44,-48.12l0 40.86c0,72.26 -23.61,131.64 -70.82,178.15 -46.98,46.5 -107.31,69.86 -180.53,69.86 -74.88,0 -135.22,-23.37 -181.47,-69.86 -20.47,-20.58 -36.41,-43.96 -47.83,-70.14l-399.1 0 0 -889.98 121.61 0 0 768.37 255.9 0 0 -330.75 121.63 0 0 324.8c0,100.15 43.88,150.24 131.87,150.24 39.12,0 70.12,-13.35 93.01,-40.05 22.65,-26.95 34.1,-63.67 34.1,-110.18l0 -219.97c-3.23,-19.36 -4.85,-39.49 -4.85,-60.38 0,-80.84 27.18,-151.42 81.56,-211.76 54.37,-60.33 118.28,-90.62 191.49,-90.62 45.31,0 88.23,12.4 129.02,37.44 40.53,24.81 72.02,57.23 94.43,97.06l0 -9.55 0 -10.62 0 -10.49 0 -10.37 0 -10.21 0 -10.08 0 -9.93 0 -9.78 0 -9.61 0 -9.45 0 -9.28 0 -7.98 0 -1.12c40.56,0 81.09,0 121.64,0 0,31.87 0,188.62 0,220.51 34.57,-38.64 66.06,-67.02 94.19,-85.37 28.14,-18.38 59.63,-27.43 94.19,-27.43 51.76,0 96.11,17.17 132.84,51.75 36.72,34.57 55.09,76.08 55.09,124.72l0 38.1zm1294.65 11.5c0,-21.19 7.59,-39.35 22.73,-54.45 15.12,-15.12 33.34,-22.66 54.61,-22.66 21.14,0 39.26,7.54 54.38,22.66 15.12,15.11 22.66,33.26 22.66,54.45 0,21.22 -7.54,39.41 -22.66,54.53 -15.12,15.15 -33.23,22.71 -54.38,22.71 -21.26,0 -39.49,-7.53 -54.61,-22.65 -15.14,-15.12 -22.73,-33.31 -22.73,-54.59zm141.58 -0.03c0,-17.67 -6.31,-32.79 -18.92,-45.38 -12.62,-12.6 -27.71,-18.92 -45.33,-18.92 -17.73,0 -32.93,6.32 -45.56,18.92 -12.68,12.6 -19,27.72 -19,45.38 0,17.73 6.32,32.92 19,45.55 12.63,12.64 27.83,18.95 45.56,18.95 17.62,0 32.71,-6.34 45.33,-19.02 12.61,-12.68 18.92,-27.83 18.92,-45.48zm-98.22 42.73l0 -82.94 28.41 0c9.08,0 15.71,0.57 19.9,1.68 4.19,1.14 7.85,3.63 11.03,7.44 3.17,3.83 4.74,8.02 4.74,12.6 0,6.55 -2.13,12.07 -6.39,16.5 -4.25,4.44 -10.02,6.95 -17.31,7.48l0 0.41c5.2,1.5 11.62,8.41 19.34,20.71l10.02 16.12 -16.37 0 -7.37 -12.95c-4.68,-8.38 -8.55,-14.18 -11.55,-17.38 -3.01,-3.25 -7.37,-4.86 -13.09,-4.86l-7.96 0 0 35.19 -13.41 0zm13.41 -46.7l16.37 0c6.98,0 12.04,-1.01 15.25,-3.01 3.22,-2.03 4.83,-5.2 4.83,-9.56 0,-4.64 -1.58,-7.86 -4.75,-9.63 -3.18,-1.82 -8.62,-2.72 -16.34,-2.72l-15.36 0 0 24.93zm-221.47 -76.14l121.61 0 0 576.63 -121.61 0 0 -114.46c-59.38,86.8 -132.83,130.21 -220.59,130.21 -76.08,0 -141.18,-29.82 -195.08,-89.68 -53.89,-59.62 -80.84,-132.11 -80.84,-217.48 0,-80.84 27.19,-151.43 81.56,-211.76 54.38,-60.33 118.28,-90.62 191.5,-90.62 45.31,0 88.23,12.4 129,37.44 40.55,24.81 72.02,57.23 94.44,97.06l0 -117.33zm17.17 289.27c0,-52.7 -19.07,-98.01 -56.99,-135.45 -37.92,-37.69 -83.47,-56.52 -136.42,-56.52 -51.74,0 -96.81,18.61 -135.21,56.04 -38.4,37.44 -57.71,81.32 -57.71,131.87 0,54.62 18.84,101.11 56.27,139.51 37.45,38.4 83,57.47 136.64,57.47 52.95,0 98.5,-19.07 136.42,-57.23 37.92,-37.92 56.99,-83.23 56.99,-135.7zm-967.49 -493.83l170.67 0 219.9 446.83 216.38 -446.83 171.63 0 -88.86 183.45 -6.04 0.53 -0.03 0 -1.3 0.13 -1.73 0.2 -3.01 0.36 -1.87 0.24 -1.12 0.15 -0.15 0.03 -5.81 0.88 -2.75 0.47 -0.22 0.04 -2.95 0.53 -0.08 0.01 -2.87 0.58c-3.92,0.8 -7.8,1.7 -11.66,2.69l-1.49 0.39 -1.37 0.37 -0.43 0.12 -2.45 0.69 -2.07 0.6 -0.8 0.24 -2.84 0.87 -2.63 0.83 -0.22 0.08 -2.82 0.95 -0.07 0.02 -2.76 0.96 -0.34 0.13 -2.46 0.89 -0.62 0.23 -2.18 0.84 -0.88 0.34 -1.9 0.75 -1.17 0.46 -1.61 0.68 -0.13 0.05 -5.37 2.31 -1.95 0.88 -0.78 0.36 -2.22 1.04 -0.5 0.24 -2.49 1.2 -0.24 0.12 -2.69 1.35 -0.04 0.01 -5.33 2.8 -0.58 0.31 -2.08 1.16 -0.84 0.46 -1.83 1.04 -1.09 0.61 -1.56 0.92 -1.34 0.81 -1.29 0.76 -1.6 0.98 -1.02 0.63 -1.86 1.16 -0.75 0.48 -2.1 1.36 -0.49 0.32 -2.37 1.56 -0.23 0.15 -2.57 1.77 -0.02 0.02 -2.54 1.77 -0.29 0.2 -2.27 1.62 -2.54 1.86 -0.77 0.58 -1.75 1.32 -1.04 0.77 -1.48 1.17 -1.28 0.99 -1.24 0.97 -1.52 1.22 -0.98 0.8 -1.75 1.44 -0.73 0.6 -1.98 1.67 -0.49 0.41 -2.22 1.92 -0.23 0.2 -2.46 2.16 0 0.01 -2.43 2.17 -0.26 0.23 -2.17 2.01 -0.49 0.45 -1.92 1.81 -0.74 0.69 -1.67 1.61 -0.96 0.94 -1.44 1.41 -1.2 1.19 -1.18 1.18 -1.43 1.45 -2.59 2.66 -0.01 0.02 -0.71 0.73 -1.87 1.97 -0.46 0.5 -2.1 2.27 -0.24 0.25 -2.32 2.55c-54.37,60.34 -81.56,130.93 -81.56,211.77l0.01 2.59 0.01 1.4 0.02 1.21 0.03 2.58 0 0.17 0.05 2.42 0.05 1.55 0.03 1.01 0.09 2.56 0.02 0.35 0.09 2.21 0.08 1.71 0.05 0.84 0.14 2.54 0.02 0.51 0.13 2.02 0.13 1.86 0.04 0.65 0.2 2.52 0.07 0.69 0.14 1.82 0.19 2.03 0.04 0.48 0.25 2.5 0.08 0.85 0.19 1.63 0.23 2.16 0.04 0.32 0.29 2.46 0.12 1.01 0.19 1.45 0.31 2.32 0.02 0.13 0.35 2.44 0.16 1.18 0.2 1.25 0.37 2.44 0 0.02 0.39 2.4 0.23 1.32 0.2 1.09 0.43 2.4 0.03 0.2 0.41 2.2 0.46 2.39 0.48 2.39 0.07 0.35 0.43 2.03 0.35 1.61 0.16 0.75 0.53 2.35 1.1 4.68 0.58 2.34 1.21 4.63 0.62 2.31 0.23 0.82 0.43 1.48c0.65,2.31 1.33,4.59 2.04,6.86l0.68 2.17 0.03 0.09 0.73 2.27c1.73,5.26 3.59,10.46 5.58,15.6l0.86 2.2 0.14 0.36 0.74 1.82c1.18,2.9 2.42,5.8 3.69,8.66l0.96 2.16 0.28 0.64 0.7 1.49 0.99 2.13 1.01 2.13 2.08 4.23 1.07 2.1 -80.43 166.01 -390.25 -801.62zm-677.57 321.15l0 -159.78c-9.42,-20.07 -22.7,-38.58 -39.83,-55.49 -37.91,-37.68 -83.46,-56.52 -136.4,-56.52 -51.75,0 -96.82,18.61 -135.22,56.04 -38.4,37.44 -57.7,81.32 -57.7,131.87 0,54.62 18.83,101.11 56.27,139.51 37.44,38.4 82.99,57.47 136.64,57.47 52.95,0 98.5,-19.07 136.4,-57.23 17.12,-17.12 30.41,-35.75 39.83,-55.87zm880.72 185.59c0,-49.37 -18.61,-92.07 -56.03,-128.55 -37.2,-36.49 -81.57,-54.62 -132.84,-54.62 -52.7,0 -98.01,18.37 -136.16,55.32 -37.92,36.97 -56.99,80.85 -56.99,132.12 0,48.88 19.31,91.59 57.71,128.3 38.4,36.49 83.71,54.86 135.45,54.86 50.32,0 94.44,-18.83 132.12,-56.28 37.92,-37.68 56.75,-81.31 56.75,-131.15z"/>
 </g>
</svg>
